# xmcd
#
# Track frame offsets: 
#        150
#        20619
#        48395
#        73485
#        103367
#        122495
#        154335
#        218192
#        241232
#
# Disc length: 3613 seconds
#
# Revision: 0
# Processed by: cddbd v1.5.2PL0 Copyright (c) Steve Scherf et al.
# Submitted via: ExactAudioCopy v0.95b4
#
DISCID=850e1b09
DTITLE=SPAIN - The Blue Moods of Spain
DYEAR=1995
DGENRE=Blues
TTITLE0=It s So True
TTITLE1=Ten Nights
TTITLE2=Dreaming of Love
TTITLE3=Untitled  1
TTITLE4=Her Used-To-Been
TTITLE5=Ray Of Light 
TTITLE6=World of Blue
TTITLE7=I Lied
TTITLE8=Spiritual
EXTD=
EXTT0=
EXTT1=
EXTT2=
EXTT3=
EXTT4=
EXTT5=
EXTT6=
EXTT7=
EXTT8=
PLAYORDER=
